<svg width="852" height="140" viewBox="0 0 852 140" fill="none" xmlns="http://www.w3.org/2000/svg">
<g filter="url(#filter0_d_202_182)">
<path d="M71.1242 15C69.2575 12.1999 66.9242 9.86661 64.1242 7.99995C61.4575 6.13328 58.8575 4.66661 56.3242 3.59994C53.3909 2.26661 50.3242 1.26661 47.1242 0.599946C66.3242 0.599946 80.0575 4.06661 88.3242 10.9999C96.5909 17.6666 100.724 26.5999 100.724 37.7999C100.724 44.7333 98.9909 51.2666 95.5242 57.3999C92.0575 63.2666 86.3909 67.9333 78.5242 71.3999C76.6575 72.1999 73.7909 73.2666 69.9242 74.5999C66.0575 75.7999 61.9909 77.3333 57.7242 79.2C61.5909 80 65.3909 81.5333 69.1242 83.7999C72.9909 86.0666 76.5242 88.6666 79.7242 91.6C82.9242 94.5333 85.7909 97.4666 88.3242 100.4C90.8575 103.2 92.7909 105.6 94.1242 107.6C95.0575 109.067 95.9909 110.467 96.9242 111.8C97.8575 113.133 98.7909 114.533 99.7242 116C100.791 117.467 101.791 118.8 102.724 120C103.658 121.2 104.591 122.267 105.524 123.2C106.991 124.8 108.858 126.067 111.124 127H57.1242C57.6575 126.6 58.4575 126.067 59.5242 125.4C60.7242 124.733 61.8575 123.933 62.9242 123C64.1242 122.067 65.1242 121.067 65.9242 120C66.8575 118.8 67.3242 117.6 67.3242 116.4C67.3242 113.6 66.9909 110.6 66.3242 107.4C65.7909 104.2 64.7909 101.067 63.3242 97.9999C61.9909 94.9333 60.1242 92.1333 57.7242 89.6C55.4575 87.0666 52.5242 85.1333 48.9242 83.7999C46.3909 85.2666 44.0575 86.9333 41.9242 88.7999C39.9242 90.6666 38.3242 92.7333 37.1242 94.9999V115.2C37.1242 121.2 40.0575 125.133 45.9242 127H4.92421C7.32421 125.933 8.99087 124.6 9.92421 123C10.8575 121.267 11.3242 118.867 11.3242 115.8V12.2C11.3242 8.99994 10.7909 6.59994 9.72421 4.99995C8.79087 3.13328 6.92421 1.66661 4.12421 0.599946H37.1242V88.6C38.3242 84.7333 40.1909 81.5333 42.7242 78.9999C45.2575 76.4666 48.1909 73.8 51.5242 71C54.8575 68.2 58.3242 64.8666 61.9242 61C65.6575 57.1333 69.3242 51.8666 72.9242 45.2C74.1242 43.0666 74.8575 40.5999 75.1242 37.7999C75.5242 34.9999 75.5909 32.1999 75.3242 29.3999C75.1909 26.5999 74.7242 23.9333 73.9242 21.4C73.1242 18.7333 72.1909 16.5999 71.1242 15Z" fill="white"/>
<path d="M122.61 122.2C123.677 120.467 124.21 118.067 124.21 115V11.7999C124.21 8.99995 123.81 6.66662 123.01 4.79995C121.943 2.79995 120.01 1.26661 117.21 0.199951H150.01V80.6C153.477 74.4666 157.343 69.4666 161.61 65.6C165.877 61.6 169.877 58.4666 173.61 56.2C178.01 53.6666 182.343 51.7333 186.61 50.3999V76.7999C182.343 75.4666 178.01 74.9999 173.61 75.3999C169.877 75.6666 165.877 76.7333 161.61 78.6C157.477 80.4666 153.61 83.9333 150.01 88.9999V126.6H117.21C119.877 125.4 121.677 123.933 122.61 122.2ZM184.21 13.3999C183.41 11.6666 182.077 9.99994 180.21 8.39994C178.477 6.79995 176.543 5.39995 174.41 4.19995C172.277 2.99995 170.277 2.06661 168.41 1.39995C166.543 0.59995 165.21 0.199951 164.41 0.199951H204.61L205.41 23.4L177.41 35.5999C179.41 33.3333 181.143 30.9999 182.61 28.5999C183.677 26.4666 184.477 24.1333 185.01 21.5999C185.677 18.9333 185.41 16.1999 184.21 13.3999ZM164.41 126.6C165.21 126.6 166.543 126.267 168.41 125.6C170.277 124.8 172.277 123.8 174.41 122.6C176.543 121.4 178.477 120 180.21 118.4C182.077 116.8 183.41 115.133 184.21 113.4C185.41 110.6 185.677 107.933 185.01 105.4C184.477 102.733 183.677 100.333 182.61 98.2C181.143 95.8 179.41 93.4666 177.41 91.2L205.41 103.4L204.61 126.6H164.41Z" fill="white"/>
<path d="M213.499 126.6C218.166 124.333 220.499 120.467 220.499 115V11.7999C220.499 8.19994 219.766 5.53328 218.299 3.79994C216.833 2.06661 215.233 0.866617 213.499 0.199951H246.099V122C250.099 122.533 253.766 122.933 257.099 123.2C260.433 123.333 263.633 123.067 266.699 122.4C269.899 121.6 272.966 120.133 275.899 118C278.833 115.867 281.899 112.8 285.099 108.8C286.699 106.8 288.299 104.067 289.899 100.6C291.499 97 292.899 93.1333 294.099 88.9999C295.433 84.7333 296.433 80.3999 297.099 75.9999C297.899 71.4666 298.299 67.2666 298.299 63.3999C298.299 55.3999 297.499 48.2666 295.899 42C294.299 35.7333 292.433 30.4666 290.299 26.2C287.899 21.5333 284.966 17.5999 281.499 14.3999C278.166 11.0666 274.899 8.33328 271.699 6.19995C267.966 3.79994 264.099 1.79995 260.099 0.199951C273.966 0.199951 285.699 2.73328 295.299 7.79995C304.899 12.7333 312.433 19.8666 317.899 29.1999C323.099 38.6666 325.699 50 325.699 63.2C325.699 66.5333 325.433 70.3333 324.899 74.5999C324.499 78.8666 323.699 83.3333 322.499 87.9999C321.299 92.5333 319.566 97.0666 317.299 101.6C315.166 106.133 312.299 110.333 308.699 114.2C304.033 119.133 299.433 122.867 294.899 125.4C290.499 127.933 286.166 129.667 281.899 130.6C277.633 131.533 273.433 131.8 269.299 131.4C265.166 131.133 261.099 130.6 257.099 129.8C253.099 129.133 249.166 128.4 245.299 127.6C241.566 126.933 237.833 126.6 234.099 126.6H213.499Z" fill="white"/>
<path d="M422.539 73.24C422.539 76.3973 422.198 79.2133 421.515 81.688C420.833 84.0773 419.681 86.424 418.059 88.728C416.438 90.9466 414.262 93.2506 411.531 95.64C408.801 97.944 405.387 100.547 401.291 103.448C403.681 100.291 405.43 97.1759 406.539 94.104C407.734 91.0319 408.545 88.1733 408.971 85.528C409.483 82.7973 409.739 80.3653 409.739 78.2319C409.739 76.0986 409.739 74.4346 409.739 73.24H422.539ZM389.515 116.12C388.918 116.888 388.321 117.571 387.723 118.168C387.211 118.765 386.657 119.32 386.059 119.832C385.462 120.344 384.95 120.813 384.523 121.24C383.585 122.008 382.518 122.733 381.323 123.416C380.214 124.099 378.977 124.696 377.611 125.208C374.881 126.232 371.595 126.744 367.755 126.744C362.465 126.744 357.942 125.763 354.187 123.8C350.433 121.923 347.617 119.363 345.739 116.12C343.862 113.133 342.923 109.635 342.923 105.624C342.923 101.528 343.947 98.072 345.995 95.256C348.043 92.3546 350.305 90.0079 352.779 88.216C355.595 86.0826 358.881 84.3333 362.635 82.9679C361.782 83.9919 360.971 84.9733 360.203 85.9119C359.521 86.7653 358.881 87.6613 358.283 88.6C357.771 89.4533 357.387 90.2213 357.131 90.904C356.022 93.6346 355.467 96.5786 355.467 99.7359C355.467 105.709 357.302 110.744 360.971 114.84C364.555 118.851 369.249 120.856 375.051 120.856C378.038 120.856 380.811 120.387 383.371 119.448C385.505 118.595 387.553 117.485 389.515 116.12ZM362.251 81.432C359.947 78.2746 357.899 75.0746 356.107 71.8319C354.486 68.8453 353.675 65.2186 353.675 60.9519C353.675 55.4906 355.638 51.0533 359.563 47.6399C363.489 44.3119 368.779 42.6479 375.435 42.6479C381.835 42.6479 386.785 44.0559 390.283 46.8719C393.611 49.6026 395.275 53.1866 395.275 57.6239C395.275 61.3786 393.739 64.664 390.667 67.4799C387.425 70.4666 382.945 73.1546 377.227 75.544C380.214 72.8133 382.433 69.9973 383.883 67.0959C385.419 63.9386 386.187 60.44 386.187 56.5999C386.187 52.9306 385.249 49.9866 383.371 47.7679C381.409 45.4639 378.806 44.3119 375.563 44.3119C372.491 44.3119 369.846 45.4213 367.627 47.6399C365.579 49.9439 364.555 52.8026 364.555 56.2159C364.555 58.3493 364.939 60.4826 365.707 62.6159C366.475 64.8346 367.798 67.3519 369.675 70.1679C369.846 70.3386 370.443 71.0639 371.467 72.3439C372.577 73.5386 373.771 74.9039 375.051 76.4399C376.331 77.8906 377.569 79.2986 378.763 80.6639C379.958 82.0293 380.769 82.9679 381.195 83.4799C382.817 85.4426 384.609 87.3626 386.571 89.24C387.766 90.52 388.875 91.7573 389.899 92.952C391.009 94.1466 392.118 95.3413 393.227 96.5359C393.483 96.7919 393.995 97.3466 394.763 98.2C395.531 98.968 396.427 99.9493 397.451 101.144C398.561 102.253 399.755 103.491 401.035 104.856C402.315 106.221 403.595 107.587 404.875 108.952C407.862 112.195 411.233 115.779 414.987 119.704C416.097 120.899 417.249 121.923 418.443 122.776C418.955 123.117 419.467 123.459 419.979 123.8C420.577 124.141 421.217 124.483 421.899 124.824H399.755L362.251 81.432Z" fill="white"/>
<path d="M447.213 122.2C448.28 120.333 448.813 117.933 448.813 115V11.7999C448.813 8.86661 448.28 6.33328 447.213 4.19995C446.013 2.59994 444.28 1.26661 442.013 0.199951H474.213V66.2C476.613 62.8666 479.88 59.6666 484.013 56.5999C488.28 53.5333 492.413 50.5333 496.413 47.5999C500.547 44.5333 504.08 41.4666 507.013 38.3999C510.08 35.1999 511.613 31.7999 511.613 28.1999C511.613 21.9333 510.08 16.9333 507.013 13.2C504.08 9.46662 500.88 6.66662 497.413 4.79995C493.147 2.53328 488.413 0.999949 483.213 0.199951C505.613 0.199951 520.08 2.66662 526.613 7.59995C533.28 12.5333 536.613 18.7333 536.613 26.2C536.613 29 536.08 31.9999 535.013 35.1999C533.947 38.2666 532.08 40.7999 529.413 42.7999C527.147 44.6666 524.547 46.0666 521.613 47C518.68 47.7999 515.613 48.5333 512.413 49.1999C509.347 49.8666 506.213 50.6 503.013 51.3999C499.947 52.0666 497.013 53.1999 494.213 54.7999C495.813 54.5333 497.48 54.3333 499.213 54.1999C501.08 53.9333 503.08 53.8666 505.213 54C508.68 54.1333 512.613 54.8666 517.013 56.2C521.547 57.3999 525.813 59.4666 529.813 62.3999C533.813 65.1999 537.147 69.0666 539.813 73.9999C542.613 78.7999 544.013 84.8666 544.013 92.2C544.013 95.9333 543.147 99.9333 541.413 104.2C539.68 108.067 536.747 111.733 532.613 115.2C530.48 116.933 527.947 118.467 525.013 119.8C522.08 121.133 518.813 122.333 515.213 123.4C511.48 124.467 507.213 125.267 502.413 125.8C497.747 126.333 492.48 126.6 486.613 126.6C489.547 126.067 492.347 125.333 495.013 124.4C497.28 123.6 499.68 122.6 502.213 121.4C504.747 120.067 506.947 118.467 508.813 116.6C511.48 114.067 513.547 110.8 515.013 106.8C516.48 102.8 517.213 97.8666 517.213 91.9999C517.213 86.3999 516.013 81.1999 513.613 76.3999C511.213 71.6 508.613 68.1333 505.813 66C502.747 63.7333 499.48 62.6666 496.013 62.7999C492.547 62.7999 489.28 63.5333 486.213 65C483.28 66.3333 480.68 68.1333 478.413 70.3999C476.147 72.5333 474.747 74.6 474.213 76.6V126.6H441.813C444.213 125.4 446.013 123.933 447.213 122.2Z" fill="white"/>
<path d="M557.57 122C558.503 120.267 558.97 117.933 558.97 115V11.7999C558.97 9.13328 558.503 6.73328 557.57 4.59994C556.636 2.59994 554.77 1.13328 551.97 0.199951H591.97C589.303 1.26661 587.436 2.73328 586.37 4.59994C585.303 6.73328 584.77 9.19995 584.77 11.9999V126.6H551.97C554.903 125.4 556.77 123.867 557.57 122ZM596.97 126.6C597.77 126.6 598.836 126.267 600.17 125.6C601.636 124.933 603.103 124.067 604.57 123C606.036 121.933 607.436 120.667 608.77 119.2C610.103 117.6 611.17 115.933 611.97 114.2C613.17 111.533 613.703 108.867 613.57 106.2C613.57 103.4 613.303 100.867 612.77 98.6C612.103 96.0666 611.17 93.6 609.97 91.2L637.97 103.4L637.17 126.6H596.97Z" fill="white"/>
<path d="M751.562 0.599946C750.495 2.46661 749.495 4.06661 748.562 5.39994C747.628 6.73328 746.762 8.19994 745.962 9.79995C745.295 11.4 744.695 13.4666 744.162 16C743.762 18.4 743.362 21.7333 742.962 26C742.695 30.1333 742.495 35.3999 742.362 41.7999C742.228 48.1999 742.162 56.1333 742.162 65.6C742.162 75.2 742.228 83.2666 742.362 89.7999C742.495 96.1999 742.695 101.467 742.962 105.6C743.362 109.733 743.762 113.067 744.162 115.6C744.695 118 745.295 120 745.962 121.6C746.762 123.2 747.562 124.667 748.362 126C749.295 127.2 750.362 128.733 751.562 130.6H729.562V0.599946H751.562ZM684.562 0.599946C679.362 2.19995 676.762 5.99995 676.762 11.9999V88.2C676.762 92.6 677.362 96.8666 678.562 101C679.895 105 681.762 108.533 684.162 111.6C686.562 114.533 689.428 116.933 692.762 118.8C696.095 120.533 699.895 121.4 704.162 121.4C707.228 121.4 710.162 121.2 712.962 120.8C715.895 120.4 718.895 119.667 721.962 118.6C721.295 119.933 720.295 121.267 718.962 122.6C717.762 123.933 716.362 125.2 714.762 126.4C713.162 127.467 711.428 128.4 709.562 129.2C707.695 130 705.762 130.467 703.762 130.6C694.695 131.533 686.828 130.867 680.162 128.6C673.495 126.467 668.028 123.133 663.762 118.6C659.495 114.067 656.295 108.467 654.162 101.8C652.162 95.1333 651.162 87.7999 651.162 79.7999V11.5999C651.162 6.26661 648.762 2.59994 643.962 0.599946H684.562Z" fill="white"/>
<path d="M764.987 122.2C766.053 120.467 766.587 118.067 766.587 115V11.7999C766.587 8.99995 766.187 6.66662 765.387 4.79995C764.32 2.79995 762.387 1.26661 759.587 0.199951H792.387V80.6C795.853 74.4666 799.72 69.4666 803.987 65.6C808.253 61.6 812.253 58.4666 815.987 56.2C820.387 53.6666 824.72 51.7333 828.987 50.3999V76.7999C824.72 75.4666 820.387 74.9999 815.987 75.3999C812.253 75.6666 808.253 76.7333 803.987 78.6C799.853 80.4666 795.987 83.9333 792.387 88.9999V126.6H759.587C762.253 125.4 764.053 123.933 764.987 122.2ZM826.587 13.3999C825.787 11.6666 824.453 9.99994 822.587 8.39994C820.853 6.79995 818.92 5.39995 816.787 4.19995C814.653 2.99995 812.653 2.06661 810.787 1.39995C808.92 0.59995 807.587 0.199951 806.787 0.199951H846.987L847.787 23.4L819.787 35.5999C821.787 33.3333 823.52 30.9999 824.987 28.5999C826.053 26.4666 826.853 24.1333 827.387 21.5999C828.053 18.9333 827.787 16.1999 826.587 13.3999ZM806.787 126.6C807.587 126.6 808.92 126.267 810.787 125.6C812.653 124.8 814.653 123.8 816.787 122.6C818.92 121.4 820.853 120 822.587 118.4C824.453 116.8 825.787 115.133 826.587 113.4C827.787 110.6 828.053 107.933 827.387 105.4C826.853 102.733 826.053 100.333 824.987 98.2C823.52 95.8 821.787 93.4666 819.787 91.2L847.787 103.4L846.987 126.6H806.787Z" fill="white"/>
</g>
<defs>
<filter id="filter0_d_202_182" x="0.124207" y="0.199951" width="851.663" height="139.38" filterUnits="userSpaceOnUse" color-interpolation-filters="sRGB">
<feFlood flood-opacity="0" result="BackgroundImageFix"/>
<feColorMatrix in="SourceAlpha" type="matrix" values="0 0 0 0 0 0 0 0 0 0 0 0 0 0 0 0 0 0 127 0" result="hardAlpha"/>
<feOffset dy="4"/>
<feGaussianBlur stdDeviation="2"/>
<feComposite in2="hardAlpha" operator="out"/>
<feColorMatrix type="matrix" values="0 0 0 0 0 0 0 0 0 0 0 0 0 0 0 0 0 0 0.25 0"/>
<feBlend mode="normal" in2="BackgroundImageFix" result="effect1_dropShadow_202_182"/>
<feBlend mode="normal" in="SourceGraphic" in2="effect1_dropShadow_202_182" result="shape"/>
</filter>
</defs>
</svg>
